<svg xmlns="http://www.w3.org/2000/svg" width="200" height="200" viewBox="0 0 200 200" role="img" aria-label="Granola bag">
  <defs>
    <linearGradient id="gbg" x1="0" y1="0" x2="1" y2="1">
      <stop offset="0" stop-color="#E8C79A"/>
      <stop offset="1" stop-color="#C89A66"/>
    </linearGradient>
    <linearGradient id="gflap" x1="0" y1="0" x2="1" y2="0">
      <stop offset="0" stop-color="#D9B583"/>
      <stop offset="1" stop-color="#B98A55"/>
    </linearGradient>
  </defs>
  <path d="M52 78 L64 60 h72 l12 18 v82 a18 18 0 0 1 -18 18 h-60 a18 18 0 0 1 -18 -18 z" fill="url(#gbg)"/>
  <path d="M64 60 h72 l-10 26 h-52 z" fill="url(#gflap)"/>
  <rect x="62" y="60" width="76" height="8" rx="4" fill="#A5713C"/>
  <path d="M52 78 h96 v10 h-96 z" fill="#A5713C" opacity="0.35"/>
  <rect x="58" y="96" width="84" height="70" rx="10" fill="#FFF8EC"/>
  <rect x="58" y="96" width="84" height="70" rx="10" fill="none" stroke="#B98A55" stroke-width="2"/>
  <rect x="74" y="110" width="52" height="12" rx="6" fill="#C89A66"/>
  <path d="M74 136 h40 M74 152 h26" stroke="#D9B583" stroke-width="7" stroke-linecap="round"/>
  <circle cx="148" cy="56" r="6" fill="#A5713C" opacity="0.5"/>
  <circle cx="138" cy="48" r="4" fill="#A5713C" opacity="0.3"/>
</svg>
